<?xml version="1.0" standalone="no"?>
<!DOCTYPE svg PUBLIC "-//W3C//DTD SVG 20010904//EN"
 "http://www.w3.org/TR/2001/REC-SVG-20010904/DTD/svg10.dtd">
<svg version="1.0" xmlns="http://www.w3.org/2000/svg"
 width="460.000000pt" height="460.000000pt" viewBox="0 0 460.000000 460.000000"
 preserveAspectRatio="xMidYMid meet">
<metadata>
Created by potrace 1.11, written by Peter Selinger 2001-2013
</metadata>
<g transform="translate(0.000000,460.000000) scale(0.100000,-0.100000)"
fill="#000000" stroke="none">
<path d="M0 2300 l0 -2300 2300 0 2300 0 0 2300 0 2300 -2300 0 -2300 0 0
-2300z m3076 669 c53 -9 70 -18 117 -60 73 -65 90 -107 97 -242 l5 -107 -117
0 -118 0 0 88 c0 48 -3 97 -6 109 -7 25 -68 53 -115 53 -44 0 -99 -29 -110
-57 -5 -13 -9 -186 -9 -384 0 -381 2 -402 48 -443 18 -15 33 -18 88 -14 98 6
104 17 104 174 l0 124 121 0 121 0 -4 -137 c-4 -153 -15 -189 -80 -254 -132
-131 -426 -127 -564 8 -66 65 -72 107 -73 543 -1 446 2 464 87 537 37 32 70
50 106 59 65 16 220 17 302 3z m877 -3 c117 -27 190 -126 204 -272 l6 -64
-117 0 -116 0 0 50 c0 64 -14 94 -56 114 -75 35 -166 9 -185 -55 -7 -20 -9
-53 -5 -72 6 -34 80 -147 96 -147 4 0 32 -20 61 -45 29 -25 56 -45 61 -45 11
0 145 -109 180 -146 15 -16 41 -60 59 -98 28 -59 32 -79 32 -151 1 -74 -2 -90
-31 -146 -27 -52 -43 -71 -90 -101 -77 -49 -128 -62 -247 -61 -113 1 -159 13
-242 69 -72 48 -104 114 -111 232 l-5 82 111 0 c123 0 122 1 122 -75 0 -92 46
-131 145 -123 80 7 105 35 105 119 0 36 -7 73 -17 92 -25 48 -108 137 -129
137 -6 0 -18 7 -25 16 -7 9 -38 33 -69 54 -97 66 -177 151 -212 226 -27 57
-32 81 -32 139 0 139 84 250 206 274 68 14 238 12 301 -3z m-3135 -133 c12
-76 26 -176 32 -223 5 -47 16 -123 24 -170 7 -47 21 -134 31 -195 26 -167 26
-168 37 -115 5 25 22 101 38 170 15 69 31 148 34 175 4 28 25 150 49 272 l42
223 173 0 173 0 -6 -607 c-4 -335 -8 -614 -10 -621 -6 -17 -224 -17 -230 1 -3
6 -1 207 3 445 7 415 3 537 -13 407 -4 -33 -24 -134 -45 -225 -21 -91 -41
-187 -45 -215 -4 -27 -25 -134 -47 -237 l-41 -188 -98 0 -97 0 -10 48 c-16 73
-49 265 -66 387 -9 61 -28 171 -42 245 -14 74 -29 158 -33 185 l-8 50 -6 -35
c-4 -19 -10 -224 -14 -455 l-8 -420 -109 -3 -109 -3 7 208 c4 114 11 388 16
608 5 220 9 406 10 413 0 9 42 12 174 12 l173 0 21 -137z m1502 -278 l0 -415
55 0 55 0 0 -85 0 -85 -55 0 -54 0 -3 -117 -3 -118 -120 0 -120 0 -3 118 -3
117 -229 0 -230 0 0 88 c0 62 4 94 15 108 8 10 15 26 15 35 0 9 8 27 18 40 11
13 47 78 82 144 35 66 77 145 93 175 57 104 125 235 161 309 20 41 41 80 47
88 9 10 46 13 145 13 l134 0 0 -415z m-1417 -1114 c14 -11 17 -35 17 -151 0
-171 -1 -172 -125 -178 l-85 -5 0 178 0 177 88 -4 c56 -2 95 -8 105 -17z m287
-1 c0 -18 -7 -20 -65 -20 l-65 0 0 -50 0 -50 50 0 c43 0 50 -3 50 -20 0 -17
-7 -20 -50 -20 l-50 0 0 -60 0 -60 65 0 c63 0 65 -1 65 -25 l0 -25 -100 0
-100 0 0 175 0 175 100 0 c93 0 100 -1 100 -20z m104 -7 c3 -16 13 -71 22
-123 9 -52 20 -99 24 -103 9 -10 27 82 36 181 l7 72 35 0 c40 0 41 13 -6 -205
l-30 -140 -46 -3 c-25 -2 -46 1 -46 6 0 22 -32 191 -44 237 -30 109 -30 105 8
105 30 0 35 -4 40 -27z m406 7 c0 -18 -7 -20 -65 -20 l-65 0 0 -50 0 -50 50 0
c43 0 50 -3 50 -20 0 -17 -7 -20 -50 -20 l-50 0 0 -60 0 -60 65 0 c63 0 65 -1
65 -25 l0 -25 -100 0 -100 0 0 175 0 175 100 0 c93 0 100 -1 100 -20z m120
-130 l0 -150 60 0 c57 0 60 -1 60 -25 0 -25 0 -25 -95 -25 l-95 0 0 175 0 175
35 0 35 0 0 -150z m355 130 c15 -17 18 -39 18 -150 0 -124 -2 -132 -24 -156
-22 -24 -30 -26 -88 -22 -89 6 -91 10 -91 179 0 167 1 169 99 169 55 0 71 -4
86 -20z m265 10 c25 -14 40 -67 32 -115 -6 -33 -14 -43 -42 -57 -19 -10 -47
-18 -62 -18 l-28 0 0 -75 0 -75 -40 0 -40 0 0 175 0 175 81 0 c44 0 89 -4 99
-10z m200 -72 c7 -45 18 -102 25 -127 l12 -46 11 55 c5 30 14 87 19 125 l8 70
53 3 52 3 0 -175 0 -176 -30 0 -30 0 0 133 c0 77 -4 126 -9 117 -5 -8 -19 -68
-32 -132 -23 -116 -23 -118 -50 -118 -31 0 -32 2 -49 110 -25 158 -28 160 -29
23 l-1 -133 -32 0 -33 0 3 175 3 175 48 0 47 0 14 -82z m450 62 c0 -16 -8 -19
-62 -22 l-63 -3 -3 -47 -3 -48 50 0 c44 0 51 -3 51 -20 0 -17 -7 -20 -50 -20
l-51 0 3 -57 3 -58 63 -3 c58 -3 62 -4 62 -27 0 -25 -1 -25 -100 -25 l-100 0
0 175 0 175 100 0 c93 0 100 -1 100 -20z m179 -85 l36 -100 3 103 3 102 29 0
30 0 0 -176 0 -175 -36 3 -37 3 -32 95 c-18 52 -37 111 -43 130 -8 29 -10 11
-11 -97 l-1 -133 -32 0 -33 0 3 176 3 175 41 -3 41 -3 36 -100z m381 86 c0
-16 -8 -20 -37 -23 l-38 -3 -3 -152 -3 -153 -34 0 -34 0 -3 153 -3 152 -37 3
c-30 3 -38 7 -38 23 0 18 8 19 115 19 107 0 115 -1 115 -19z m210 -1 c11 -11
20 -31 20 -45 0 -21 -5 -25 -28 -25 -19 0 -30 7 -37 23 -7 14 -19 22 -35 22
-22 0 -25 -4 -25 -35 0 -29 7 -39 49 -71 57 -44 75 -71 76 -117 0 -53 -37 -82
-103 -82 -64 0 -95 20 -99 65 -3 27 0 30 27 33 23 2 32 -2 40 -20 13 -29 45
-35 62 -12 7 10 13 21 13 26 0 14 -72 88 -85 88 -45 0 -75 119 -39 154 24 25
138 22 164 -4z"/>
<path d="M2064 2609 c-11 -14 -29 -49 -97 -184 -19 -38 -42 -83 -50 -100 -50
-98 -87 -174 -87 -179 0 -3 54 -6 120 -6 88 0 122 3 126 13 2 7 3 115 2 241
-2 169 -6 225 -14 215z"/>
<path d="M780 1290 c0 -121 1 -130 19 -130 49 0 51 5 51 130 0 125 -2 130 -51
130 -18 0 -19 -9 -19 -130z"/>
<path d="M2061 1406 c-8 -9 -11 -51 -9 -121 3 -90 6 -110 21 -119 12 -8 22 -8
35 0 14 9 17 29 20 119 3 111 -4 135 -38 135 -10 0 -23 -6 -29 -14z"/>
<path d="M2340 1360 c0 -64 9 -72 51 -50 14 8 19 21 19 50 0 29 -5 42 -19 50
-42 22 -51 14 -51 -50z"/>
</g>
</svg>
